<?xml version="1.0" standalone="no"?>
<!DOCTYPE svg PUBLIC "-//W3C//DTD SVG 20010904//EN"
 "http://www.w3.org/TR/2001/REC-SVG-20010904/DTD/svg10.dtd">
<svg version="1.0" xmlns="http://www.w3.org/2000/svg"
 width="896.000000pt" height="896.000000pt" viewBox="0 0 896.000000 896.000000"
 preserveAspectRatio="xMidYMid meet">
<metadata>
Created by potrace 1.14, written by Peter Selinger 2001-2017
</metadata>
<g transform="translate(0.000000,896.000000) scale(0.100000,-0.100000)"
fill="#000000" stroke="none">
<path d="M5467 8933 c-1 -1 -29 -3 -62 -4 -63 -2 -172 -23 -215 -40 -44 -19
-141 -70 -163 -87 -30 -25 -98 -95 -124 -128 -24 -30 -74 -126 -77 -147 -1 -7
-4 -17 -8 -22 -5 -9 -9 -24 -23 -100 -2 -11 -4 -20 -5 -20 -1 0 -3 -10 -4 -22
-2 -13 -5 -25 -7 -27 -2 -2 -26 7 -54 19 -73 34 -233 95 -248 95 -7 0 -17 4
-22 8 -6 5 -28 14 -50 20 -22 6 -58 17 -80 24 -22 7 -44 13 -50 14 -16 2 -68
15 -95 24 -14 5 -43 12 -65 14 -22 3 -51 7 -65 10 -112 25 -347 27 -470 5
-134 -24 -261 -76 -355 -144 -34 -25 -122 -111 -153 -151 -31 -39 -87 -140
-105 -189 -8 -22 -19 -49 -23 -60 -4 -11 -9 -24 -9 -30 -1 -5 -5 -22 -9 -36
-9 -32 -14 -59 -15 -81 -1 -22 -17 -22 -73 -4 -24 8 -56 17 -73 20 -16 2 -55
9 -85 16 -77 15 -99 19 -150 25 -25 2 -63 8 -85 11 -53 9 -318 8 -386 -1 -191
-25 -407 -116 -533 -225 -113 -96 -219 -242 -262 -358 -10 -26 -21 -51 -25
-57 -6 -9 -24 -67 -35 -117 -2 -10 -6 -28 -9 -40 -16 -70 -27 -165 -30 -256
-2 -56 -7 -107 -10 -112 -3 -6 -3 -10 2 -10 4 0 8 -24 8 -53 1 -62 13 -210 19
-229 3 -7 8 -33 11 -58 10 -65 13 -84 15 -90 1 -3 2 -8 2 -11 -1 -3 5 -30 13
-60 8 -29 11 -57 7 -60 -4 -4 -23 -10 -42 -13 -60 -10 -73 -13 -142 -40 -114
-43 -184 -88 -278 -181 -62 -61 -68 -69 -106 -134 -18 -31 -38 -62 -44 -68 -6
-7 -10 -15 -10 -18 1 -3 -8 -30 -19 -60 -11 -30 -23 -65 -25 -77 -3 -13 -8
-34 -11 -48 -34 -137 -38 -391 -9 -555 3 -16 7 -43 9 -60 2 -16 4 -30 5 -30 2
0 7 -21 14 -65 4 -19 14 -60 22 -90 9 -30 18 -64 20 -74 2 -11 22 -74 44 -140
22 -67 40 -125 41 -131 1 -5 10 -27 20 -47 10 -21 19 -43 19 -50 0 -9 -29 -19
-80 -30 -219 -45 -387 -196 -458 -413 -30 -88 -35 -126 -37 -272 -2 -134 13
-259 49 -401 14 -55 46 -152 60 -187 9 -22 17 -42 18 -45 3 -24 55 -144 119
-277 66 -135 165 -309 240 -421 27 -40 49 -75 49 -78 0 -3 6 -11 12 -18 7 -8
20 -24 28 -36 14 -21 53 -76 104 -145 11 -14 27 -35 35 -45 9 -10 23 -27 31
-37 31 -38 105 -128 115 -140 168 -196 315 -346 525 -538 19 -17 80 -69 135
-115 55 -45 111 -92 125 -104 14 -12 50 -39 80 -61 30 -22 56 -43 58 -47 2 -5
10 -8 17 -8 7 0 15 -3 17 -8 5 -11 215 -152 226 -152 6 0 12 -4 14 -8 2 -5 30
-23 63 -42 33 -18 62 -36 65 -40 3 -3 20 -12 37 -19 18 -8 33 -17 33 -22 0 -5
9 -9 19 -9 11 0 21 -3 23 -7 5 -12 201 -105 298 -143 47 -19 90 -36 95 -40 6
-4 33 -13 60 -20 28 -7 55 -16 60 -21 6 -4 24 -9 42 -12 17 -3 35 -7 40 -10
15 -9 218 -49 273 -53 73 -6 238 -5 270 1 14 3 41 8 60 11 155 26 305 115 392
234 67 91 120 228 121 318 0 17 7 16 84 -14 103 -40 106 -41 138 -52 17 -6 39
-13 50 -18 11 -4 25 -8 30 -9 22 -6 171 -48 185 -53 8 -3 24 -7 35 -9 11 -2
56 -10 100 -19 133 -25 183 -29 365 -29 178 0 212 3 310 31 30 8 63 17 72 19
29 6 188 88 188 96 0 4 8 10 18 13 26 9 121 101 170 167 45 60 103 177 122
249 7 25 15 52 18 60 6 18 8 29 10 53 2 20 -2 21 152 -12 52 -12 122 -24 155
-27 33 -3 76 -9 95 -13 41 -8 357 -6 413 3 214 35 362 88 502 181 71 47 191
164 221 214 10 17 22 31 26 31 4 0 8 5 8 10 0 6 11 28 24 49 23 37 82 168 92
206 45 173 49 201 48 405 0 169 -7 287 -20 332 -6 20 -14 63 -19 93 -1 11 -12
62 -25 113 -12 51 -20 95 -18 96 1 2 36 11 76 19 88 20 186 59 262 103 160 94
283 253 339 439 34 115 46 203 45 340 -2 178 -8 228 -55 420 -26 106 -39 153
-57 205 -3 8 -6 20 -8 25 -3 11 -55 152 -73 198 -6 15 -19 46 -30 70 -30 66
-30 69 9 73 113 13 260 74 340 141 117 96 196 245 217 403 11 87 5 258 -12
340 -2 8 -6 30 -9 48 -14 74 -59 225 -86 287 -5 11 -28 65 -51 120 -51 118
-112 236 -186 359 -29 49 -53 93 -53 98 0 4 -4 8 -8 8 -5 0 -19 20 -32 45 -13
25 -29 50 -37 56 -7 6 -13 18 -13 25 0 8 -5 14 -10 14 -6 0 -14 10 -19 23 -5
12 -16 31 -25 42 -9 11 -55 72 -102 135 -48 63 -98 129 -113 145 -14 17 -41
50 -59 73 -19 22 -44 52 -55 65 -12 13 -40 45 -62 70 -166 195 -551 569 -720
698 -16 13 -32 26 -35 29 -11 11 -99 80 -185 144 -49 37 -98 74 -108 82 -9 8
-20 14 -24 14 -4 0 -16 8 -27 18 -21 18 -193 129 -252 163 -17 9 -42 23 -55
31 -13 7 -26 16 -29 19 -3 3 -23 14 -45 25 -22 11 -69 35 -105 54 -36 19 -67
34 -70 35 -3 0 -14 6 -25 12 -57 31 -328 129 -385 139 -14 3 -42 9 -63 15 -37
10 -57 13 -142 25 -47 6 -115 11 -118 7z m230 -246 c5 -3 25 -9 44 -12 61 -11
153 -33 196 -49 22 -8 44 -12 47 -9 3 4 6 0 6 -7 0 -7 3 -10 7 -7 3 4 12 2 20
-4 7 -6 13 -8 13 -5 0 4 12 1 28 -8 15 -8 43 -20 62 -27 61 -22 257 -117 353
-171 156 -87 475 -302 553 -373 7 -5 20 -17 31 -25 35 -28 128 -105 139 -115
226 -203 394 -371 529 -530 28 -32 57 -66 65 -74 8 -9 31 -37 50 -61 19 -25
37 -47 40 -50 3 -3 25 -32 50 -65 25 -33 47 -62 50 -65 15 -14 170 -250 170
-259 0 -6 4 -11 8 -11 5 0 16 -15 25 -32 9 -18 33 -60 52 -93 48 -82 146 -281
188 -385 75 -184 126 -382 133 -525 3 -49 6 -94 6 -100 0 -5 -3 -30 -6 -55
-31 -199 -120 -306 -291 -347 -42 -10 -207 -9 -219 1 -7 6 -32 45 -56 86 -23
41 -51 91 -62 110 -11 19 -33 54 -49 77 -16 23 -29 46 -29 52 0 6 -4 11 -10
11 -5 0 -10 5 -10 11 0 12 -61 102 -72 107 -5 2 -8 8 -8 13 0 18 -192 283
-328 454 -35 44 -73 93 -85 108 -12 15 -27 34 -34 41 -6 7 -41 48 -78 92 -203
239 -462 510 -694 724 -56 52 -114 106 -129 120 -15 14 -72 63 -127 110 -55
47 -102 87 -105 90 -3 3 -27 23 -55 44 -27 22 -57 46 -65 53 -27 23 -73 59
-190 147 -63 47 -121 91 -128 97 -18 15 -376 255 -388 260 -5 2 -35 20 -67 39
-129 77 -153 91 -174 102 -15 7 -23 21 -24 37 -9 199 20 303 108 386 29 27
123 80 123 69 0 -4 6 -1 13 5 8 6 31 13 53 17 21 3 41 8 43 10 6 5 267 -3 278
-9z m-1647 -351 c36 -5 76 -12 120 -21 14 -3 36 -7 50 -10 127 -24 518 -154
552 -184 4 -4 10 -27 14 -51 3 -25 7 -54 8 -65 13 -92 56 -255 96 -365 17 -47
32 -89 33 -95 2 -5 15 -36 30 -69 15 -32 27 -60 27 -63 0 -6 102 -208 130
-258 13 -22 34 -60 48 -85 13 -25 31 -52 38 -61 8 -8 14 -19 14 -23 0 -24 305
-447 397 -550 6 -7 31 -35 54 -62 181 -211 430 -458 619 -614 41 -34 85 -70
96 -80 12 -10 59 -46 105 -81 46 -35 86 -66 89 -69 3 -3 46 -33 95 -65 50 -33
92 -62 95 -65 11 -12 211 -130 219 -130 5 0 11 -3 13 -7 5 -12 251 -136 348
-176 93 -38 223 -87 243 -91 6 -2 19 -6 27 -9 37 -15 204 -51 285 -62 22 -3
48 -7 58 -9 9 -1 22 -7 28 -13 20 -20 132 -314 143 -376 2 -14 9 -35 16 -46 6
-12 9 -21 6 -21 -3 0 1 -21 9 -47 7 -27 16 -64 19 -83 3 -19 12 -73 20 -120
20 -123 18 -340 -4 -431 -18 -77 -58 -182 -72 -187 -4 -2 -8 -10 -8 -18 0 -27
-133 -150 -195 -180 -32 -15 -64 -29 -70 -30 -5 -1 -39 -9 -75 -17 -36 -9 -83
-17 -104 -19 l-39 -3 -42 102 c-23 56 -40 105 -37 108 3 3 0 5 -6 5 -7 0 -12
4 -12 10 0 5 -13 39 -30 75 -16 36 -30 67 -30 70 -1 13 -191 373 -230 435 -20
32 -85 146 -89 155 -2 6 -7 12 -10 15 -11 9 -51 69 -51 77 0 4 -18 33 -40 64
-22 32 -40 61 -40 67 0 5 -9 17 -19 26 -11 10 -27 32 -36 49 -9 18 -40 66 -70
107 -30 41 -60 83 -67 93 -7 11 -21 28 -30 39 -10 12 -18 24 -18 27 0 3 -10
18 -23 33 -13 15 -32 39 -43 53 -10 15 -26 35 -34 45 -8 10 -24 30 -34 45 -11
14 -27 34 -35 44 -9 10 -27 33 -41 51 -31 41 -181 223 -237 286 -142 163 -147
169 -299 330 -68 72 -190 197 -271 277 -157 155 -172 169 -303 287 -45 41 -95
86 -110 100 -58 53 -90 80 -95 80 -2 1 -17 13 -32 28 -15 15 -50 45 -77 67
-27 22 -59 48 -70 57 -75 63 -168 135 -272 213 -65 50 -120 93 -122 98 -2 4
-10 7 -18 7 -8 0 -17 7 -20 15 -4 8 -10 15 -15 15 -8 0 -115 73 -146 100 -7 5
-14 10 -16 10 -2 0 -58 35 -124 78 -65 42 -128 82 -139 89 -52 33 -180 108
-189 112 -5 2 -12 7 -15 10 -3 4 -16 12 -30 18 -14 7 -61 33 -105 57 -71 41
-302 158 -315 161 -3 0 -36 15 -73 33 -38 18 -71 32 -73 32 -3 0 -29 11 -57
23 -29 13 -74 32 -101 42 l-48 19 6 65 c16 182 112 345 251 426 49 29 175 79
175 69 0 -3 6 -2 12 3 7 4 26 8 41 9 16 2 31 5 34 8 6 6 291 -1 343 -8z m1111
-406 c5 0 54 -27 110 -60 55 -33 103 -60 105 -60 3 0 17 -9 32 -19 15 -10 83
-56 152 -101 115 -76 288 -197 300 -210 3 -3 21 -17 40 -30 19 -13 37 -27 40
-30 3 -4 50 -42 105 -85 55 -44 102 -82 105 -85 3 -3 38 -34 78 -68 93 -79
132 -114 207 -182 92 -85 392 -387 465 -469 36 -40 77 -86 91 -102 25 -27 52
-59 134 -159 20 -25 50 -61 66 -80 83 -101 189 -240 189 -249 0 -5 4 -11 8
-13 9 -3 128 -169 167 -232 11 -18 45 -73 76 -122 107 -172 169 -280 169 -293
0 -5 -30 2 -67 16 -38 14 -78 28 -90 30 -13 3 -23 9 -23 14 0 5 -6 9 -13 9 -8
0 -46 16 -86 35 -39 19 -73 35 -75 35 -3 0 -48 25 -101 55 -54 30 -101 55
-106 55 -5 0 -9 4 -9 8 0 5 -12 14 -27 21 -27 12 -234 148 -243 160 -3 3 -16
12 -30 19 -64 33 -420 329 -581 482 -20 19 -56 54 -80 77 -55 52 -199 202
-259 268 -104 115 -229 265 -285 340 -17 22 -38 49 -47 59 -10 11 -20 28 -24
38 -3 10 -9 18 -13 18 -7 0 -68 84 -96 131 -5 9 -35 54 -66 100 -30 46 -64
100 -75 119 -10 19 -21 37 -24 40 -39 39 -231 461 -237 520 -1 14 0 19 3 13 3
-7 10 -13 15 -13z m-2654 -224 c114 -11 351 -53 373 -66 6 -4 13 -38 15 -76 4
-76 14 -174 21 -205 2 -10 6 -29 9 -41 3 -13 7 -36 9 -53 2 -16 9 -50 16 -75
7 -25 13 -52 15 -60 2 -8 11 -42 21 -75 10 -33 19 -64 20 -70 6 -35 104 -295
141 -375 148 -322 294 -583 481 -860 79 -117 283 -393 337 -457 13 -15 61 -73
106 -128 46 -55 88 -105 94 -111 5 -6 39 -45 75 -85 73 -84 552 -562 596 -596
16 -12 47 -39 70 -60 23 -21 60 -54 84 -73 24 -19 48 -40 54 -46 22 -21 263
-211 321 -254 33 -24 62 -46 65 -49 21 -24 369 -250 515 -335 83 -48 161 -93
175 -101 53 -31 395 -195 407 -195 3 0 20 -7 39 -15 79 -35 102 -44 169 -66
39 -12 76 -27 83 -32 6 -5 12 -7 12 -3 0 3 15 0 33 -7 17 -8 37 -15 42 -16 6
-1 26 -6 45 -11 19 -5 50 -12 69 -15 19 -3 37 -8 41 -10 7 -4 26 -9 110 -24
91 -16 131 -21 230 -27 52 -4 97 -8 98 -9 5 -5 21 -73 27 -114 3 -18 7 -37 10
-41 3 -5 8 -29 10 -53 3 -25 8 -56 11 -68 16 -83 23 -323 11 -439 -15 -158
-92 -354 -179 -456 -109 -127 -253 -205 -448 -242 -75 -14 -463 -3 -491 14 -3
2 -21 6 -40 8 -71 11 -106 18 -159 32 -30 9 -62 17 -70 18 -9 1 -20 5 -25 8
-6 3 -25 9 -42 13 -39 8 -40 10 -47 61 -9 72 -17 119 -28 159 -6 22 -12 49
-13 60 -2 11 -15 59 -29 107 -15 48 -29 95 -31 105 -2 10 -9 32 -16 48 -7 17
-13 32 -14 35 -6 25 -32 95 -51 137 -13 28 -24 54 -24 56 0 2 -19 44 -42 93
-23 49 -43 91 -43 94 -1 7 -90 176 -128 245 -53 95 -62 110 -67 115 -8 8 -29
44 -39 65 -13 30 -223 346 -286 431 -30 41 -55 76 -55 79 0 3 -8 13 -17 23
-10 10 -45 53 -78 96 -33 43 -64 84 -70 90 -5 6 -48 58 -95 116 -47 58 -92
112 -100 121 -8 8 -42 46 -75 84 -33 37 -80 91 -105 119 -121 137 -572 578
-698 683 -15 12 -43 36 -62 53 -19 18 -77 66 -129 108 -52 43 -107 89 -123
104 -15 14 -28 24 -28 21 0 -2 -13 6 -28 19 -16 12 -43 34 -62 48 -18 14 -39
31 -46 38 -7 6 -17 12 -23 12 -6 0 -11 3 -11 8 0 6 -99 78 -148 107 -9 6 -19
13 -22 16 -7 9 -251 169 -257 169 -3 0 -17 8 -31 19 -15 10 -43 28 -62 39 -19
11 -83 47 -141 81 -58 33 -111 61 -118 61 -6 0 -11 5 -11 10 0 6 -9 10 -19 10
-11 0 -21 3 -23 8 -3 7 -85 48 -228 115 -126 59 -298 121 -458 166 -119 34
-127 35 -263 58 l-97 17 -20 70 c-51 180 -74 300 -87 461 -10 133 -5 341 10
365 3 4 7 25 11 46 8 53 59 168 104 235 51 74 145 160 228 206 37 21 72 38 77
39 6 1 34 11 63 23 30 12 58 19 63 16 5 -4 9 -1 9 6 0 7 2 10 6 7 3 -3 22 -2
42 3 20 5 73 12 117 15 44 3 81 7 82 8 4 3 166 -2 230 -8z m768 -190 c77 -30
100 -39 110 -42 6 -1 42 -16 80 -34 39 -17 86 -38 105 -47 133 -60 306 -149
450 -233 41 -23 95 -54 120 -68 25 -15 47 -30 48 -34 2 -4 8 -8 13 -8 6 0 42
-21 82 -47 125 -81 212 -138 217 -143 3 -3 34 -25 70 -49 60 -41 200 -145 345
-256 33 -25 62 -50 63 -55 2 -6 10 -10 17 -10 7 0 15 -3 17 -7 2 -5 28 -28 58
-53 30 -25 66 -55 80 -66 51 -44 185 -159 196 -169 419 -387 713 -696 984
-1034 19 -24 47 -59 63 -76 15 -18 27 -38 27 -44 0 -6 4 -11 10 -11 5 0 20
-15 32 -34 13 -19 49 -68 81 -109 31 -42 57 -80 57 -86 0 -6 4 -11 8 -11 9 0
169 -228 191 -272 7 -16 17 -28 22 -28 5 0 9 -5 9 -10 0 -6 9 -23 19 -38 25
-35 136 -216 136 -222 0 -3 12 -23 26 -45 13 -22 33 -58 44 -80 11 -22 25 -45
30 -51 6 -6 42 -76 80 -155 39 -79 74 -147 78 -150 5 -3 8 -9 8 -13 -1 -3 5
-21 12 -39 8 -17 31 -72 52 -122 20 -49 43 -103 50 -120 8 -16 20 -49 28 -73
14 -39 13 -42 -2 -38 -9 3 -36 8 -61 11 -24 4 -47 8 -51 10 -3 2 -21 7 -40 10
-38 7 -41 7 -224 66 -71 22 -134 45 -139 50 -6 5 -20 9 -33 9 -13 0 -23 5 -23
10 0 6 -7 10 -15 10 -8 0 -23 4 -33 9 -9 6 -87 43 -172 84 -85 41 -190 95
-233 121 -43 25 -80 46 -83 46 -2 0 -60 36 -130 80 -69 44 -130 80 -135 80 -5
0 -9 4 -9 8 0 5 -12 15 -27 23 -16 8 -33 19 -40 24 -6 6 -35 26 -63 45 -28 19
-74 52 -103 73 -29 21 -63 46 -76 55 -71 51 -393 311 -461 372 -15 14 -60 54
-101 90 -136 120 -375 354 -513 501 -170 182 -256 278 -256 285 0 3 -10 15
-23 27 -23 21 -216 258 -267 327 -14 18 -42 55 -62 82 -21 26 -38 50 -38 53 0
4 -6 13 -14 21 -16 16 -236 340 -236 348 0 2 -18 32 -40 65 -22 33 -40 63 -40
66 0 4 -8 19 -19 33 -39 56 -162 295 -225 437 -27 61 -55 124 -62 140 -17 37
-93 269 -98 301 -3 13 -7 27 -10 32 -3 5 -8 24 -11 43 -3 19 -8 41 -10 49 -2
8 -7 39 -10 68 -5 48 -4 52 12 43 10 -5 36 -16 58 -25z m-1959 -1576 c7 -14
26 -65 44 -115 17 -49 40 -109 51 -132 10 -24 19 -46 19 -50 -1 -21 251 -546
270 -563 3 -3 16 -25 29 -50 44 -83 165 -285 173 -288 4 -2 8 -8 8 -13 0 -14
257 -398 280 -419 3 -3 14 -18 23 -33 10 -16 24 -36 32 -45 84 -105 105 -133
105 -137 0 -3 9 -16 21 -28 11 -12 39 -47 62 -77 23 -30 50 -62 59 -71 10 -9
18 -21 18 -28 0 -6 3 -11 8 -11 4 0 42 -42 85 -94 42 -51 94 -112 114 -134 21
-22 72 -78 113 -124 148 -164 517 -526 699 -686 14 -12 35 -30 46 -40 24 -22
204 -173 223 -187 7 -5 18 -15 25 -20 28 -24 207 -164 262 -205 33 -24 66 -50
73 -57 8 -7 23 -18 35 -25 12 -6 54 -34 92 -63 39 -29 75 -54 80 -56 19 -8
130 -84 133 -91 2 -5 8 -8 14 -8 5 0 28 -13 51 -29 23 -16 47 -29 52 -30 6 -1
19 -10 30 -19 11 -9 31 -23 45 -31 14 -8 62 -36 108 -63 46 -26 88 -48 93 -48
5 0 9 -3 9 -7 0 -5 19 -17 43 -28 23 -11 44 -22 47 -25 9 -10 316 -160 327
-160 6 0 16 -7 23 -15 6 -8 15 -14 18 -13 7 1 40 -11 97 -37 46 -20 232 -91
308 -117 63 -22 67 -25 63 -50 -2 -15 -7 -32 -11 -38 -3 -5 -8 -22 -11 -36 -8
-46 -63 -148 -105 -197 -51 -59 -135 -117 -211 -145 -32 -12 -58 -19 -58 -16
0 3 -6 2 -12 -3 -18 -10 -54 -16 -110 -17 -27 -1 -48 -3 -48 -6 0 -13 -229 5
-323 26 -40 8 -81 17 -92 19 -112 19 -434 139 -615 230 -84 42 -95 52 -105
102 -4 22 -52 170 -64 198 -5 11 -18 41 -30 67 -12 26 -21 50 -21 53 0 22
-190 374 -250 465 -10 14 -35 52 -56 85 -21 33 -41 62 -44 65 -3 3 -25 34 -50
70 -24 36 -49 70 -55 76 -5 6 -17 21 -25 34 -19 27 -138 177 -199 250 -173
206 -445 482 -666 677 -105 92 -116 101 -167 141 -27 20 -48 40 -48 44 0 4 -6
8 -14 8 -8 0 -16 4 -18 9 -8 21 -383 291 -405 291 -6 0 -14 7 -17 16 -3 8 -10
13 -15 9 -5 -3 -12 -1 -16 5 -8 14 -157 101 -290 170 -105 54 -217 104 -330
146 -24 9 -22 8 -120 37 l-80 23 -50 100 c-54 106 -82 169 -122 274 -14 36
-28 74 -33 85 -25 66 -87 286 -95 340 -2 11 -7 45 -11 75 -11 66 -11 331 -1
379 46 212 173 351 381 417 39 12 75 22 81 21 5 -1 15 -13 21 -27z m429 20 c0
-1 14 -4 30 -5 17 -2 59 -10 95 -19 36 -10 77 -19 93 -22 99 -19 420 -141 612
-235 113 -55 309 -161 332 -181 7 -6 13 -7 13 -4 0 4 6 2 13 -4 20 -17 113
-76 129 -82 20 -8 299 -196 324 -219 11 -11 26 -19 32 -19 7 0 12 -4 12 -8 0
-4 12 -15 28 -24 15 -9 38 -26 52 -37 14 -11 97 -77 184 -147 87 -70 171 -139
186 -153 15 -14 58 -53 95 -86 91 -80 128 -115 275 -260 122 -120 318 -327
380 -401 9 -11 43 -50 76 -89 60 -70 167 -202 214 -265 14 -18 44 -58 67 -89
23 -31 51 -67 61 -81 45 -59 202 -300 202 -310 0 -5 3 -10 8 -10 6 0 44 -56
47 -70 0 -3 13 -24 28 -47 15 -24 27 -44 27 -46 0 -2 23 -44 51 -93 67 -117
170 -324 161 -324 -4 0 -2 -4 4 -8 6 -4 30 -54 53 -112 23 -58 46 -114 51
-125 39 -89 134 -421 124 -436 -3 -5 -1 -9 3 -9 5 0 9 -8 9 -17 0 -10 4 -42 8
-71 4 -28 5 -52 2 -52 -32 0 -423 184 -576 271 -41 23 -84 47 -95 54 -36 19
-136 80 -163 97 -15 10 -34 21 -42 25 -8 4 -96 61 -194 128 -99 66 -186 125
-194 130 -9 6 -23 15 -31 22 -9 7 -47 35 -86 63 -38 28 -73 57 -77 63 -4 7 -8
8 -8 4 0 -7 -5 -3 -43 28 -7 6 -57 46 -112 90 -85 67 -145 117 -303 250 -13
11 -36 31 -51 45 -15 14 -65 59 -111 100 -157 140 -467 445 -590 580 -18 19
-58 63 -89 96 -113 124 -181 201 -261 299 -46 55 -86 102 -89 105 -4 3 -18 21
-31 40 -14 19 -32 42 -40 50 -8 9 -26 31 -40 50 -14 18 -50 65 -80 105 -30 39
-63 83 -72 96 -10 13 -35 47 -55 76 -54 73 -155 224 -215 318 -29 44 -66 103
-85 132 -18 28 -33 56 -33 61 0 6 -6 17 -13 24 -8 7 -46 72 -85 143 -40 72
-77 137 -82 145 -6 8 -15 26 -20 40 -6 14 -14 32 -20 40 -5 8 -16 29 -23 45
-8 17 -31 66 -52 110 -60 129 -105 232 -105 241 0 2 19 2 43 0 23 -2 42 -5 42
-6z m-881 -1903 c7 -12 44 -80 81 -152 80 -154 83 -158 118 -212 15 -24 27
-47 27 -53 0 -5 5 -10 10 -10 6 0 10 -5 10 -10 0 -23 302 -465 393 -576 9 -10
46 -57 83 -104 37 -47 81 -101 98 -121 17 -20 51 -60 76 -89 68 -80 75 -88
163 -185 107 -117 413 -422 507 -505 41 -36 81 -72 90 -80 8 -8 58 -51 110
-95 52 -44 100 -84 106 -90 6 -5 26 -21 44 -35 18 -14 39 -31 46 -37 7 -7 16
-13 20 -13 4 0 12 -6 18 -14 13 -16 180 -141 296 -221 47 -33 87 -63 88 -67 2
-5 9 -8 16 -8 7 0 22 -9 34 -20 12 -12 22 -17 22 -13 0 4 4 3 8 -2 6 -9 104
-72 227 -146 67 -40 95 -56 243 -135 l144 -76 -6 -47 c-9 -73 -14 -89 -39
-145 -48 -104 -127 -166 -245 -191 -63 -13 -201 -13 -276 0 -69 12 -240 63
-316 95 -41 17 -79 32 -85 34 -27 6 -260 127 -344 178 -53 33 -105 65 -115 71
-100 62 -296 202 -406 291 -41 34 -83 68 -94 76 -10 8 -23 20 -30 25 -6 6 -42
37 -80 70 -200 172 -493 467 -622 625 -16 19 -35 42 -43 50 -11 12 -46 55
-174 215 -164 205 -370 553 -491 825 -53 121 -124 397 -113 441 3 10 2 19 -1
19 -4 0 -6 19 -4 42 1 24 3 54 3 68 1 45 27 129 53 174 57 98 173 161 319 173
9 1 23 -8 31 -20z m513 -68 c138 -50 220 -85 330 -141 65 -33 133 -68 151 -76
17 -9 32 -20 32 -24 0 -4 6 -8 13 -8 7 0 36 -16 66 -35 29 -19 55 -35 57 -35
8 0 69 -44 72 -52 2 -5 8 -8 13 -8 12 0 113 -70 117 -82 2 -4 10 -8 18 -8 8 0
14 -4 14 -9 0 -5 8 -12 18 -15 9 -3 31 -18 47 -32 17 -14 46 -38 65 -53 19
-14 40 -30 46 -36 7 -5 26 -21 44 -35 18 -14 37 -29 44 -35 6 -5 45 -39 86
-75 89 -76 403 -389 477 -475 47 -55 104 -123 144 -172 241 -297 465 -667 578
-958 23 -60 47 -120 52 -133 5 -13 9 -32 9 -43 0 -18 -3 -18 -42 7 -70 44
-292 187 -303 196 -5 4 -64 47 -130 94 -66 48 -141 104 -166 125 -26 22 -52
39 -58 39 -6 0 -11 4 -11 8 0 4 -34 34 -75 65 -41 32 -75 62 -75 68 0 5 -5 9
-11 9 -10 0 -93 71 -269 229 -119 106 -480 468 -580 580 -41 46 -79 89 -85 95
-62 69 -139 161 -239 286 -42 52 -85 105 -96 118 -11 13 -35 45 -52 70 -18 26
-35 49 -38 52 -3 3 -17 21 -30 40 -13 19 -27 37 -30 40 -10 9 -167 244 -228
343 -40 62 -56 97 -47 97 8 0 40 -9 72 -21z"/>
</g>
</svg>
